<svg width="137" height="21" viewBox="0 0 137 21" fill="none" xmlns="http://www.w3.org/2000/svg">
  <path d="M0 20.7463H7.20693C13.7688 20.7463 17.7868 16.6591 17.7868 10.7678C17.7868 4.84832 13.6243 0.732886 7.12021 0.732886H0V20.7463ZM2.5149 18.5195V2.95973H7.14912C11.9477 2.95973 15.1852 6.20134 15.1852 10.7678C15.1852 15.2779 12.0633 18.5195 7.06239 18.5195H2.5149Z" fill="#0B344B"/>
  <path d="M25.7401 20.9154C28.0237 20.9154 29.7582 19.9007 30.7699 18.2658H30.7988V20.7463H33.0535V7.01879H30.7121V9.44295L30.6543 9.47114C29.6425 7.80805 27.8214 6.84967 25.7401 6.84967C21.751 6.84967 18.8892 9.92215 18.8892 13.9812C18.8892 18.153 21.8666 20.9154 25.7401 20.9154ZM26.087 18.8295C23.1963 18.8295 21.2595 16.7436 21.2595 13.9812C21.2595 10.9369 23.4276 8.93557 26.087 8.93557C28.862 8.93557 30.7988 11.1624 30.7988 13.9812C30.7988 16.8846 28.6886 18.8295 26.087 18.8295Z" fill="#0B344B"/>
  <path d="M40.2085 20.9154C41.8851 20.9154 43.753 19.9649 44.5335 19.5139C44.5335 19.5139 44.2373 19.1288 43.9608 18.7052C43.6843 18.2815 43.4474 17.8579 43.4474 17.8579C42.7536 18.2243 41.4515 18.7732 40.6132 18.7732C39.2834 18.7732 38.9076 17.9839 38.9076 16.3208V8.99195H43.5616V7.01879H38.9076V2.08591L36.5662 2.3396V7.01879H34.7451V8.99195H36.5662V16.6591C36.5662 19.4215 37.7225 20.9154 40.2085 20.9154Z" fill="#0B344B"/>
  <path d="M50.958 20.9154C53.2416 20.9154 54.976 19.9007 55.9878 18.2658H56.0167V20.7463H58.2714V7.01879H55.93V9.44295L55.8721 9.47114C54.8604 7.80805 53.0393 6.84967 50.958 6.84967C46.9688 6.84967 44.107 9.92215 44.107 13.9812C44.107 18.153 47.0844 20.9154 50.958 20.9154ZM51.3049 18.8295C48.4142 18.8295 46.4774 16.7436 46.4774 13.9812C46.4774 10.9369 48.6454 8.93557 51.3049 8.93557C54.0799 8.93557 56.0167 11.1624 56.0167 13.9812C56.0167 16.8846 53.9065 18.8295 51.3049 18.8295Z" fill="#0B344B"/>
  <path d="M70.8317 20.9436C73.9826 20.9436 77.0467 19.9289 78.9256 18.4631V9.83758H70.8308V13.2483H74.9654V16.1799C73.6646 16.9691 72.306 17.3356 70.8317 17.3356C66.9871 17.3356 64.6167 14.4604 64.6167 10.7678C64.6167 6.68054 67.2762 4.22819 70.6583 4.22819C72.913 4.22819 74.6763 5.07383 75.9482 6.3141L78.81 3.88993C76.6998 1.60671 73.5779 0.479195 70.6583 0.479195C64.2409 0.479195 60.3674 4.9047 60.3674 10.7678C60.3674 17.1946 64.9058 20.9436 70.8317 20.9436Z" fill="#0B344B"/>
  <path d="M86.4703 21C88.0602 21 89.5634 20.3517 90.6329 19.0832L90.6907 19.1114V20.7463H94.5064V6.96242H90.6907V13.6711C90.6907 16.3208 89.2165 17.6738 87.5688 17.6738C85.8055 17.6738 85.025 16.8282 85.025 14.3195V6.96242H81.2671V15.2779C81.2671 19.4779 83.4062 21 86.4703 21Z" fill="#0B344B"/>
  <path d="M103.069 21C104.919 21 106.335 20.3235 107.318 19.0832L107.376 19.1114V20.7463H110.989V6.96242H107.202V8.54094L107.144 8.56913C106.133 7.38524 104.63 6.7651 102.982 6.7651C99.195 6.7651 96.3332 9.72483 96.3332 13.8966C96.3332 18.153 99.195 21 103.069 21ZM103.791 17.6738C101.652 17.6738 100.178 16.1235 100.178 13.9248C100.178 11.557 101.739 10.0631 103.791 10.0631C105.815 10.0631 107.376 11.698 107.376 13.9248C107.376 16.1799 105.728 17.6738 103.791 17.6738Z" fill="#0B344B"/>
  <path d="M113.577 20.7463H117.363V14.3758C117.363 12.2899 118.606 10.7678 120.948 10.7678C121.179 10.7678 121.555 10.7678 121.96 10.796V6.7651H121.671C120.023 6.7651 118.491 7.55436 117.421 8.96376H117.363V6.96242H113.577V20.7463Z" fill="#0B344B"/>
  <path d="M128.993 21C130.901 21 132.375 20.2953 133.358 19.055H133.387V20.7463H137V0H133.242V8.56913H133.184C132.144 7.38524 130.641 6.7651 128.906 6.7651C125.119 6.7651 122.229 9.72483 122.229 13.8966C122.229 18.153 125.09 21 128.993 21ZM129.687 17.6738C127.576 17.6738 126.073 16.1235 126.073 13.9248C126.073 11.557 127.663 10.0631 129.687 10.0631C131.855 10.0631 133.387 11.698 133.387 13.9248C133.387 16.1799 131.768 17.6738 129.687 17.6738Z" fill="#0B344B"/>
</svg>
